HIERARCHY
ROOT Root
{
	OFFSET -2.573863 99.078728 -1.032762
	CHANNELS 6 Xposition Yposition Zposition Xrotation Yrotation Zrotation
	JOINT IKJnt_Grp
	{
		OFFSET 0.000000 0.000000 0.000000
		CHANNELS 6 Xposition Yposition Zposition Xrotation Yrotation Zrotation
		JOINT IKLegFrontR01_jnt
		{
			OFFSET -6.500005 -3.255150 10.015763
			CHANNELS 6 Xposition Yposition Zposition Xrotation Yrotation Zrotation
			JOINT IKLegFrontR02_jnt
			{
				OFFSET -9.719193 -0.000015 5.172733
				CHANNELS 6 Xposition Yposition Zposition Xrotation Yrotation Zrotation
				JOINT IKLegFrontR03_jnt
				{
					OFFSET 0.000000 -19.999985 0.000074
					CHANNELS 6 Xposition Yposition Zposition Xrotation Yrotation Zrotation
					JOINT IKLegFrontR04_jnt
					{
						OFFSET 0.000000 -21.000038 0.000074
						CHANNELS 6 Xposition Yposition Zposition Xrotation Yrotation Zrotation
						End Site
						{
							OFFSET 0.000000 21.000038 -0.000018
						}
					}
				}
			}
		}
		JOINT IKLegBackR01_jnt
		{
			OFFSET -6.500001 -3.255150 -11.802598
			CHANNELS 6 Xposition Yposition Zposition Xrotation Yrotation Zrotation
			JOINT IKLegBackR02_jnt
			{
				OFFSET -9.719196 -0.000031 -5.185904
				CHANNELS 6 Xposition Yposition Zposition Xrotation Yrotation Zrotation
				JOINT IKLegBackR03_jnt
				{
					OFFSET 0.000000 -20.000000 -0.000360
					CHANNELS 6 Xposition Yposition Zposition Xrotation Yrotation Zrotation
					JOINT IKLegBackR04_jnt
					{
						OFFSET 0.000000 -20.999943 0.000347
						CHANNELS 6 Xposition Yposition Zposition Xrotation Yrotation Zrotation
						End Site
						{
							OFFSET 0.000000 20.999943 -0.000370
						}
					}
				}
			}
		}
		JOINT IKLegFrontL01_jnt
		{
			OFFSET 6.498628 -3.255157 10.007559
			CHANNELS 6 Xposition Yposition Zposition Xrotation Yrotation Zrotation
			JOINT IKLegFrontL02_jnt
			{
				OFFSET 9.737183 -0.000008 5.180938
				CHANNELS 6 Xposition Yposition Zposition Xrotation Yrotation Zrotation
				JOINT IKLegFrontL03_jnt
				{
					OFFSET 0.000000 -19.993607 -0.505187
					CHANNELS 6 Xposition Yposition Zposition Xrotation Yrotation Zrotation
					JOINT IKLegFrontL04_jnt
					{
						OFFSET 0.000000 -20.999950 0.017213
						CHANNELS 6 Xposition Yposition Zposition Xrotation Yrotation Zrotation
						End Site
						{
							OFFSET 0.000000 20.999943 -0.017233
						}
					}
				}
			}
		}
		JOINT IKLegBackL01_jnt
		{
			OFFSET 6.500279 -3.255180 -11.808104
			CHANNELS 6 Xposition Yposition Zposition Xrotation Yrotation Zrotation
			JOINT IKLegBackL02_jnt
			{
				OFFSET 9.735531 0.000000 -5.180398
				CHANNELS 6 Xposition Yposition Zposition Xrotation Yrotation Zrotation
				JOINT IKLegBackL03_jnt
				{
					OFFSET 0.000000 -20.000000 -0.000086
					CHANNELS 6 Xposition Yposition Zposition Xrotation Yrotation Zrotation
					JOINT IKLegBackL04_jnt
					{
						OFFSET 0.000000 -20.999985 0.000101
						CHANNELS 6 Xposition Yposition Zposition Xrotation Yrotation Zrotation
						End Site
						{
							OFFSET 0.000000 20.999985 -0.000093
						}
					}
				}
			}
		}
	}
}
MOTION
Frames: 9
Frame Time: 0.016667
-2.573863 99.310776 179.316650 7.207115 0.000000 -0.000000 0.000000 -0.000000 0.000006 -0.000000 0.000000 -0.000000 -6.500005 -3.255150 10.015743 0.000000 0.000000 -0.000000 -9.719193 -0.000013 5.172745 22.221752 0.000001 0.000000 0.000001 -19.999992 0.000058 -37.353096 0.000000 -0.000001 -0.000002 -21.000034 0.000080 -0.000000 -0.000000 -0.000000 -6.500001 -3.255150 -11.802623 0.000000 0.000000 -0.000000 -9.719196 -0.000028 -5.185872 41.618276 -0.000001 -0.000000 0.000001 -20.000000 -0.000364 -43.992770 -0.000000 0.000001 0.000000 -20.999943 0.000360 0.000000 -0.000000 0.000000 6.498628 -3.255165 10.007544 0.000000 0.000000 -0.000000 9.737182 -0.000023 5.180936 34.145991 0.000000 -0.000000 0.000000 -19.993614 -0.505212 -29.457715 0.000000 -0.000000 -0.000001 -20.999962 0.017205 0.000001 0.000000 -0.000000 6.500279 -3.255188 -11.808122 0.000000 0.000000 -0.000000 9.735531 -0.000003 -5.180388 48.565865 0.000000 -0.000000 0.000001 -20.000000 -0.000094 -43.821387 0.000000 -0.000000 0.000001 -20.999985 0.000081 0.000001 0.000000 -0.000000 
-2.573863 100.406754 180.879059 6.659192 0.000000 -0.000000 -0.000000 0.000000 0.000007 -0.000000 0.000000 -0.000000 -6.500005 -3.255150 10.015775 -0.000000 0.000000 -0.000000 -9.719192 -0.000014 5.172724 24.861141 0.000000 0.000000 0.000001 -19.999981 0.000059 -39.641930 0.000000 -0.000001 -0.000000 -21.000038 0.000070 0.000001 -0.000000 -0.000000 -6.500001 -3.255150 -11.802591 0.000000 0.000000 -0.000000 -9.719196 -0.000035 -5.185881 43.239756 -0.000001 -0.000000 0.000001 -19.999996 -0.000362 -48.968628 -0.000000 0.000001 -0.000000 -20.999939 0.000334 -0.000000 0.000000 0.000000 6.498628 -3.255165 10.007578 -0.000000 0.000000 -0.000000 9.737182 -0.000006 5.180919 36.675541 0.000000 -0.000000 -0.000001 -19.993601 -0.505175 -34.839415 0.000000 -0.000000 -0.000001 -20.999954 0.017207 -0.000000 0.000000 -0.000000 6.500278 -3.255188 -11.808094 -0.000000 0.000000 -0.000000 9.735531 0.000003 -5.180399 50.907517 0.000000 -0.000000 0.000000 -20.000004 -0.000104 -50.786025 0.000000 -0.000000 0.000000 -20.999981 0.000096 0.000000 0.000000 -0.000000 
-2.573863 101.296097 182.430984 6.013743 0.000000 -0.000000 0.000000 0.000008 0.000000 -0.000000 0.000000 -0.000000 -6.500005 -3.255150 10.015771 -0.000000 0.000000 -0.000000 -9.719192 -0.000006 5.172756 27.556381 0.000000 0.000000 -0.000001 -19.999973 0.000078 -42.094282 0.000000 -0.000001 -0.000000 -21.000042 0.000077 -0.000000 0.000000 0.000000 -6.500001 -3.255150 -11.802583 0.000000 0.000000 0.000000 -9.719196 -0.000032 -5.185894 45.068262 -0.000001 -0.000000 0.000001 -19.999996 -0.000370 -54.947957 -0.000000 0.000001 0.000000 -20.999939 0.000355 -0.000000 -0.000000 -0.000000 6.498628 -3.255157 10.007565 -0.000000 0.000000 -0.000000 9.737182 -0.000016 5.180923 40.268063 0.000000 -0.000000 -0.000001 -19.993612 -0.505183 -42.807234 0.000000 -0.000000 0.000000 -20.999943 0.017224 0.000000 0.000000 -0.000000 6.500278 -3.255180 -11.808087 -0.000000 0.000000 -0.000000 9.735531 0.000005 -5.180388 53.156418 0.000000 -0.000000 -0.000000 -20.000010 -0.000095 -60.004592 -0.000000 0.000000 0.000000 -20.999981 0.000067 0.000000 0.000000 0.000000 
-2.573863 101.988754 183.975601 5.297137 0.000000 -0.000000 0.000000 0.000008 0.000009 -0.000000 0.000000 -0.000000 -6.500005 -3.255150 10.015744 -0.000000 0.000000 -0.000000 -9.719192 -0.000015 5.172736 30.693798 0.000000 0.000000 -0.000000 -19.999994 0.000068 -45.950924 0.000000 -0.000001 -0.000000 -21.000038 0.000104 -0.000001 -0.000000 0.000000 -6.500001 -3.255150 -11.802617 -0.000000 0.000000 -0.000000 -9.719196 -0.000024 -5.185903 46.870008 -0.000001 -0.000000 0.000001 -20.000011 -0.000369 -61.442107 -0.000000 0.000001 0.000000 -20.999931 0.000351 -0.000000 -0.000000 -0.000000 6.498628 -3.255150 10.007542 -0.000000 0.000000 -0.000000 9.737182 -0.000024 5.180938 44.249480 0.000000 -0.000000 -0.000002 -19.993614 -0.505196 -52.169364 0.000000 -0.000000 0.000000 -20.999950 0.017206 0.000000 0.000000 -0.000000 6.500279 -3.255173 -11.808108 -0.000000 0.000000 -0.000000 9.735531 0.000003 -5.180415 54.732464 0.000000 -0.000000 0.000000 -19.999987 -0.000088 -69.703836 0.000000 -0.000000 -0.000001 -20.999977 0.000112 -0.000000 0.000000 -0.000000 
-2.573863 102.435394 185.513138 4.535746 0.000000 -0.000000 -0.000000 0.000015 -0.000005 -0.000000 0.000000 -0.000000 -6.500005 -3.255157 10.015765 -0.000000 0.000000 -0.000000 -9.719192 -0.000005 5.172752 34.430181 0.000000 0.000001 0.000002 -19.999990 0.000082 -51.806541 0.000001 -0.000001 0.000002 -21.000038 0.000088 -0.000000 0.000000 0.000000 -6.500000 -3.255142 -11.802598 -0.000000 -0.000000 -0.000000 -9.719196 -0.000034 -5.185901 48.519680 -0.000001 -0.000000 0.000001 -20.000019 -0.000357 -68.142660 -0.000001 0.000001 -0.000002 -20.999943 0.000359 -0.000001 -0.000000 -0.000000 6.498628 -3.255150 10.007565 -0.000000 0.000000 -0.000000 9.737182 -0.000011 5.180937 47.897480 0.000000 -0.000000 0.000000 -19.993618 -0.505180 -61.485315 0.000000 -0.000000 0.000000 -20.999950 0.017228 0.000001 0.000000 -0.000000 6.500278 -3.255173 -11.808093 -0.000000 0.000000 -0.000000 9.735531 -0.000000 -5.180387 54.822920 -0.000000 0.000000 0.000001 -20.000000 -0.000091 -78.189226 0.000000 -0.000000 -0.000000 -20.999981 0.000088 -0.000001 0.000000 0.000000 
-2.573863 102.717873 187.047562 3.755941 0.000000 -0.000000 0.000000 0.000000 0.000002 -0.000000 0.000000 -0.000000 -6.500005 -3.255150 10.015766 -0.000000 0.000000 -0.000000 -9.719192 -0.000012 5.172746 38.090602 0.000000 0.000001 -0.000002 -20.000004 0.000079 -58.477757 0.000001 -0.000001 -0.000002 -21.000046 0.000083 -0.000000 0.000000 0.000000 -6.500001 -3.255158 -11.802590 -0.000001 0.000000 -0.000000 -9.719196 -0.000014 -5.185898 49.595407 -0.000001 -0.000000 0.000003 -20.000032 -0.000366 -74.245768 -0.000001 0.000001 0.000002 -20.999954 0.000326 0.000002 0.000000 -0.000000 6.498628 -3.255157 10.007553 -0.000000 0.000000 -0.000000 9.737182 -0.000021 5.180934 51.023265 0.000000 -0.000000 0.000000 -19.993637 -0.505195 -70.468564 0.000000 -0.000000 -0.000003 -20.999958 0.017226 0.000001 0.000000 -0.000000 6.500279 -3.255188 -11.808120 -0.000000 0.000000 -0.000000 9.735531 -0.000002 -5.180395 53.757093 -0.000001 0.000001 -0.000002 -20.000021 -0.000082 -85.187499 -0.000000 0.000000 -0.000001 -20.999977 0.000090 0.000001 0.000000 -0.000000 
-2.573863 102.895355 188.583496 2.984092 0.000000 -0.000000 0.000000 0.000008 -0.000013 0.000000 0.000000 -0.000000 -6.500005 -3.255157 10.015757 0.000000 0.000000 -0.000000 -9.719192 -0.000008 5.172737 41.055980 0.000000 0.000001 0.000000 -19.999987 0.000082 -65.047068 0.000001 -0.000001 0.000002 -21.000034 0.000081 0.000002 -0.000000 -0.000000 -6.500000 -3.255150 -11.802589 -0.000000 -0.000000 -0.000000 -9.719196 -0.000014 -5.185895 49.600929 -0.000001 -0.000000 0.000003 -20.000021 -0.000370 -78.715560 -0.000001 0.000001 0.000000 -20.999943 0.000346 0.000000 -0.000000 -0.000000 6.498628 -3.255165 10.007556 0.000000 0.000000 -0.000000 9.737182 -0.000019 5.180935 53.163163 0.000000 -0.000000 -0.000001 -19.993626 -0.505189 -78.352850 0.000000 -0.000000 0.000000 -20.999943 0.017205 -0.000001 0.000000 -0.000000 6.500279 -3.255180 -11.808112 0.000000 0.000000 -0.000000 9.735531 0.000002 -5.180400 51.489555 -0.000000 0.000000 -0.000002 -20.000019 -0.000076 -89.624711 0.000000 0.000000 0.000000 -20.999977 0.000094 0.000001 0.000000 -0.000000 
-2.573863 102.986496 190.119354 2.246572 0.000000 -0.000000 0.000000 0.000008 0.000006 -0.000000 0.000000 -0.000000 -6.500005 -3.255150 10.015765 0.000000 0.000000 -0.000000 -9.719192 -0.000020 5.172739 43.315420 0.000000 0.000001 -0.000002 -20.000008 0.000088 -71.311416 0.000001 -0.000001 0.000000 -21.000042 0.000070 -0.000002 -0.000000 -0.000000 -6.500001 -3.255150 -11.802613 0.000000 0.000000 -0.000000 -9.719196 -0.000027 -5.185886 48.634294 -0.000001 -0.000000 0.000001 -20.000008 -0.000363 -81.939655 -0.000001 0.000001 0.000000 -20.999947 0.000368 -0.000001 0.000000 -0.000000 6.498628 -3.255157 10.007544 0.000000 0.000000 -0.000000 9.737182 -0.000016 5.180943 54.419375 0.000000 -0.000000 0.000000 -19.993616 -0.505185 -85.136867 0.000000 -0.000000 -0.000001 -20.999950 0.017210 0.000001 0.000000 -0.000000 6.500279 -3.255180 -11.808098 0.000000 0.000000 -0.000000 9.735531 0.000004 -5.180411 48.331815 0.000000 -0.000000 -0.000001 -20.000013 -0.000079 -92.208455 0.000000 -0.000000 0.000001 -20.999966 0.000092 -0.000001 0.000000 -0.000000 
-2.573863 103.030998 191.655121 1.583400 0.000000 -0.000000 0.000000 0.000000 -0.000000 -0.000000 0.000000 -0.000000 -6.500005 -3.255157 10.015757 -0.000000 0.000000 -0.000000 -9.719192 -0.000029 5.172723 44.629504 0.000001 0.000001 0.000002 -19.999983 0.000078 -76.681523 0.000001 -0.000001 -0.000000 -21.000038 0.000089 0.000003 -0.000000 0.000000 -6.500000 -3.255157 -11.802599 -0.000000 -0.000000 -0.000000 -9.719196 -0.000030 -5.185918 46.538129 -0.000001 0.000000 -0.000001 -20.000010 -0.000346 -83.831365 -0.000001 0.000001 0.000000 -20.999939 0.000350 -0.000003 -0.000000 -0.000000 6.498628 -3.255165 10.007556 -0.000000 0.000000 -0.000000 9.737182 -0.000009 5.180916 54.723182 0.000000 -0.000000 -0.000001 -19.993608 -0.505174 -90.520681 0.000000 -0.000000 -0.000003 -20.999950 0.017219 -0.000001 0.000000 -0.000000 6.500279 -3.255188 -11.808096 -0.000000 0.000000 -0.000000 9.735531 -0.000001 -5.180410 44.567893 0.000000 -0.000000 -0.000001 -19.999989 -0.000069 -93.134766 0.000000 0.000000 -0.000001 -20.999996 0.000100 -0.000001 0.000000 -0.000000 
